<svg version="1.1" xmlns="http://www.w3.org/2000/svg" width="128" height="128" style="">
  <g transform="translate(5, -30)">
    <path fill="#6e1a07" d="M94.576,87.912q0,12.25-12.544,23.422q-19.306,17.248-43.218,17.248q-2.646,0-4.116-0.098q-7.84-0.392-12.593-5.145t-4.753-12.299t4.018-16.464q5.096-11.27,19.894-21.952q17.052-12.152,35.28-12.152q9.8,0,14.896,3.822t5.096,9.506q0,3.528-2.744,8.722q0.784,2.646,0.784,5.39z M92.518,79.582q0.98-2.352,0.98-5.243t-2.156-5.929q-4.214-5.88-14.896-5.88q-14.798,0-27.93,9.163t-20.482,23.079q-5.39,10.094-5.39,18.13q0,12.936,13.034,13.622q1.372,0.098,2.744,0.098q19.306,0,36.75-15.582q12.544-11.172,13.524-21.266q-5.096,5.586-17.64,13.328l-0.784,0.196q-0.098,0-0.098-0.098q0-0.392,2.646-2.646l5.488-4.508q7.056-6.174,10.29-10.094q-0.686-5.488-4.949-9.163t-9.751-5.341q-2.744-0.686-8.477-0.882t-5.733-0.392t0.196-0.392q4.508-1.47,8.673-1.47t9.555,1.274q10.29,2.45,14.406,9.996z"></path>
  </g>
</svg>